# xmcd
#
# Track frame offsets: 
#        150
#        24367
#        49657
#        71637
#        92122
#        118527
#        146610
#        172605
#
# Disc length: 2641 seconds
#
# Revision: 2
# Processed by: cddbd v1.5.2PL0 Copyright (c) Steve Scherf et al.
# Submitted via: ExactAudioCopy v0.99pb5
#
DISCID=600a4f08
DTITLE=Dan Den - Mecanica Guapa
DYEAR=1999
DGENRE=Salsa
TTITLE0=Ojos que te ven
TTITLE1=Quisiera pero no puedo
TTITLE2=Me arrebata
TTITLE3=Que la vida me tratara asi
TTITLE4=Justina
TTITLE5=Para seguir creyendo en ti
TTITLE6=Te creo pero no te entiendo
TTITLE7=Mecanica guapa
EXTD=
EXTT0=
EXTT1=
EXTT2=
EXTT3=
EXTT4=
EXTT5=
EXTT6=
EXTT7=
PLAYORDER=
